<svg width="25" height="24" viewBox="0 0 25 24" fill="none" xmlns="http://www.w3.org/2000/svg">
<path d="M24.5 24H15L1 12H11L24.5 24Z" fill="url(#paint0_linear_106_12)"/>
<path d="M12 11L24 0H15.5L1 11H12Z" fill="url(#paint1_linear_106_12)"/>
<path d="M0 23V15L6 17.5V20L0 23Z" fill="url(#paint2_linear_106_12)"/>
<path d="M0 9V1L6 3.5V6L0 9Z" fill="url(#paint3_linear_106_12)"/>
<path d="M1 12V11H3V12H1Z" fill="url(#paint4_linear_106_12)"/>
<defs>
<linearGradient id="paint0_linear_106_12" x1="0.0408157" y1="12" x2="-2.68514" y2="32.6561" gradientUnits="userSpaceOnUse">
<stop stop-color="#111111"/>
<stop offset="1" stop-color="#C5BE16"/>
</linearGradient>
<linearGradient id="paint1_linear_106_12" x1="0.0612239" y1="-1.84165e-08" x2="-2.28406" y2="18.9746" gradientUnits="userSpaceOnUse">
<stop stop-color="#111111"/>
<stop offset="1" stop-color="#C5BE16"/>
</linearGradient>
<linearGradient id="paint2_linear_106_12" x1="-0.244898" y1="15" x2="-4.56032" y2="27.5235" gradientUnits="userSpaceOnUse">
<stop stop-color="#111111"/>
<stop offset="1" stop-color="#C5BE16"/>
</linearGradient>
<linearGradient id="paint3_linear_106_12" x1="-0.244898" y1="1" x2="-4.56032" y2="13.5235" gradientUnits="userSpaceOnUse">
<stop stop-color="#111111"/>
<stop offset="1" stop-color="#C5BE16"/>
</linearGradient>
<linearGradient id="paint4_linear_106_12" x1="2" y1="11" x2="2" y2="12" gradientUnits="userSpaceOnUse">
<stop stop-color="#757113"/>
<stop offset="1" stop-color="#111111"/>
</linearGradient>
</defs>
</svg>
